<?xml version="1.0" encoding="UTF-8" standalone="no"?>
<!-- Created with Serif DrawPlus 11, 0, 0, 18 (Mar 20, 15:09:53) (http://www.serif.com) -->
<svg version="1.1" xmlns="http://www.w3.org/2000/svg" xmlns:xlink="http://www.w3.org/1999/xlink" width="816" height="1056">
	<g id="Yellow_Head">
		<path id="dp_path001" fill="yellow" fill-rule="evenodd" d="M 464.169,529.905 L 463.26,529.868 L 462.351,529.792 L 461.441,529.679 L 460.571,529.527 L 459.699,529.337 L 458.865,529.109 L 457.995,528.845 L 457.199,528.504 L 456.404,528.164 L 455.645,527.784 L 454.888,527.368 L 454.131,526.876 L 453.449,526.421 L 452.767,525.889 L 452.123,525.321 L 451.479,524.753 L 450.911,524.148 L 450.343,523.504 L 449.812,522.821 L 449.32,522.14 L 448.827,521.421 L 448.411,520.7 L 447.995,519.943 L 447.653,519.147 L 447.312,518.352 L 447.047,517.556 L 446.82,516.723 L 446.592,515.851 L 446.44,514.98 L 446.327,514.108 L 446.252,513.2 L 446.252,512.328 L 446.252,511.42 L 446.327,510.511 L 446.44,509.64 L 446.592,508.768 L 446.82,507.896 L 447.047,507.063 L 447.312,506.268 L 447.653,505.472 L 447.995,504.676 L 448.411,503.919 L 448.827,503.199 L 449.32,502.479 L 449.812,501.797 L 450.343,501.116 L 450.911,500.472 L 451.479,499.865 L 452.123,499.297 L 452.767,498.729 L 453.449,498.199 L 454.131,497.744 L 454.888,497.252 L 455.645,496.835 L 456.404,496.456 L 457.199,496.115 L 457.995,495.775 L 458.865,495.509 L 459.699,495.281 L 460.571,495.092 L 461.441,494.94 L 462.351,494.827 L 463.26,494.752 L 464.169,494.713 L 465.116,494.752 L 466.025,494.827 L 466.933,494.94 L 467.805,495.092 L 468.677,495.281 L 469.511,495.509 L 470.343,495.775 L 471.177,496.115 L 471.972,496.456 L 472.729,496.835 L 473.488,497.252 L 474.207,497.744 L 474.927,498.199 L 475.608,498.729 L 476.252,499.297 L 476.859,499.865 L 477.465,500.472 L 478.033,501.116 L 478.563,501.797 L 479.056,502.479 L 479.549,503.199 L 479.965,503.919 L 480.344,504.676 L 480.723,505.472 L 481.027,506.268 L 481.329,507.063 L 481.556,507.896 L 481.745,508.768 L 481.935,509.64 L 482.049,510.511 L 482.087,511.42 L 482.124,512.328 L 482.087,513.2 L 482.049,514.108 L 481.935,514.98 L 481.745,515.851 L 481.556,516.723 L 481.329,517.556 L 481.027,518.352 L 480.723,519.147 L 480.344,519.943 L 479.965,520.7 L 479.549,521.421 L 479.056,522.14 L 478.563,522.821 L 478.033,523.504 L 477.465,524.148 L 476.859,524.753 L 476.252,525.321 L 475.608,525.889 L 474.927,526.421 L 474.207,526.876 L 473.488,527.368 L 472.729,527.784 L 471.972,528.164 L 471.177,528.504 L 470.343,528.845 L 469.511,529.109 L 468.677,529.337 L 467.805,529.527 L 466.933,529.679 L 466.025,529.792 L 465.116,529.868 Z M 325.3,528.315 L 324.391,528.315 L 323.48,528.239 L 322.609,528.125 L 321.739,527.973 L 320.867,527.784 L 320.033,527.557 L 319.2,527.292 L 318.404,526.951 L 317.609,526.609 L 316.852,526.231 L 316.132,525.815 L 315.412,525.36 L 314.693,524.867 L 314.048,524.375 L 313.404,523.807 L 312.797,523.239 L 312.192,522.632 L 311.624,522.027 L 311.132,521.344 L 310.639,520.7 L 310.147,519.98 L 309.729,519.26 L 309.352,518.503 L 309.011,517.747 L 308.669,516.951 L 308.404,516.155 L 308.139,515.321 L 307.949,514.488 L 307.797,513.617 L 307.684,512.745 L 307.609,511.873 L 307.609,511.003 L 307.609,510.093 L 307.684,509.221 L 307.797,508.351 L 307.949,507.479 L 308.139,506.647 L 308.404,505.851 L 308.669,505.017 L 309.011,504.26 L 309.352,503.465 L 309.729,502.744 L 310.147,501.987 L 310.639,501.304 L 311.132,500.623 L 311.624,499.979 L 312.192,499.336 L 312.797,498.729 L 313.404,498.161 L 314.048,497.631 L 314.693,497.1 L 315.412,496.607 L 316.132,496.152 L 316.852,495.736 L 317.609,495.357 L 318.404,495.016 L 319.2,494.713 L 320.033,494.448 L 320.867,494.22 L 321.739,493.993 L 322.609,493.843 L 323.48,493.765 L 324.391,493.691 L 325.3,493.652 L 326.208,493.691 L 327.079,493.765 L 327.988,493.843 L 328.859,493.993 L 329.693,494.22 L 330.527,494.448 L 331.36,494.713 L 332.155,495.016 L 332.951,495.357 L 333.708,495.736 L 334.465,496.152 L 335.185,496.607 L 335.868,497.1 L 336.549,497.631 L 337.193,498.161 L 337.8,498.729 L 338.368,499.336 L 338.936,499.979 L 339.465,500.623 L 339.959,501.304 L 340.413,501.987 L 340.829,502.744 L 341.247,503.465 L 341.588,504.26 L 341.891,505.017 L 342.193,505.851 L 342.42,506.647 L 342.611,507.479 L 342.761,508.351 L 342.875,509.221 L 342.952,510.093 L 342.989,511.003 L 342.952,511.873 L 342.875,512.745 L 342.761,513.617 L 342.611,514.488 L 342.42,515.321 L 342.193,516.155 L 341.891,516.951 L 341.588,517.747 L 341.247,518.503 L 340.829,519.26 L 340.413,519.98 L 339.959,520.7 L 339.465,521.344 L 338.936,522.027 L 338.368,522.632 L 337.8,523.239 L 337.193,523.807 L 336.549,524.375 L 335.868,524.867 L 335.185,525.36 L 334.465,525.815 L 333.708,526.231 L 332.951,526.609 L 332.155,526.951 L 331.36,527.292 L 330.527,527.557 L 329.693,527.784 L 328.859,527.973 L 327.988,528.125 L 327.079,528.239 L 326.208,528.315 Z M 417.159,806.52 L 422.917,806.481 L 428.713,806.368 L 434.508,806.179 L 440.265,805.952 L 446.024,805.649 L 451.781,805.271 L 457.54,804.816 L 463.297,804.285 L 469.056,803.717 L 474.775,803.035 L 480.533,802.316 L 486.253,801.481 L 491.972,800.611 L 497.693,799.625 L 503.413,798.565 L 506.292,798.035 L 509.133,797.467 L 510.837,797.201 L 512.467,796.899 L 514.02,796.596 L 515.497,796.216 L 516.936,795.837 L 518.3,795.421 L 519.588,794.967 L 520.8,794.473 L 521.975,793.944 L 523.072,793.375 L 524.133,792.807 L 525.119,792.2 L 526.028,791.557 L 526.937,790.912 L 527.771,790.193 L 528.528,789.473 L 529.247,788.753 L 529.929,787.957 L 530.573,787.2 L 531.179,786.367 L 531.711,785.533 L 532.201,784.663 L 532.695,783.791 L 533.111,782.92 L 533.491,781.973 L 533.831,781.064 L 534.172,780.116 L 534.437,779.131 L 534.701,778.147 L 534.929,777.163 L 535.12,776.139 L 535.271,775.116 L 535.423,774.092 L 535.536,773.033 L 535.649,771.972 L 535.725,770.873 L 535.801,768.715 L 535.839,766.517 L 535.801,764.281 L 535.725,762.009 L 535.611,759.736 L 535.497,757.463 L 535.271,752.917 L 535.156,750.645 L 535.081,748.409 L 535.043,746.175 L 535.081,743.977 L 535.156,741.819 L 535.233,740.757 L 535.347,739.696 L 537.392,739.128 L 539.437,738.56 L 541.483,737.953 L 543.491,737.348 L 545.46,736.703 L 547.431,736.021 L 549.363,735.34 L 551.295,734.62 L 553.227,733.9 L 555.083,733.143 L 556.976,732.385 L 558.833,731.589 L 560.651,730.756 L 562.469,729.923 L 564.249,729.089 L 566.029,728.18 L 567.772,727.271 L 569.476,726.363 L 571.181,725.415 L 572.885,724.431 L 574.553,723.444 L 576.181,722.421 L 577.811,721.361 L 579.44,720.301 L 581.031,719.24 L 582.583,718.104 L 584.136,717.005 L 585.652,715.831 L 587.167,714.656 L 588.644,713.444 L 590.084,712.232 L 591.524,710.981 L 592.963,709.695 L 594.364,708.407 L 595.728,707.08 L 597.092,705.755 L 598.417,704.391 L 599.743,702.988 L 601.031,701.587 L 602.281,700.148 L 603.531,698.708 L 604.781,697.193 L 605.995,695.716 L 607.168,694.161 L 608.343,692.609 L 609.479,691.019 L 610.577,689.427 L 611.676,687.799 L 612.775,686.132 L 613.797,684.464 L 614.857,682.76 L 615.843,681.017 L 616.828,679.275 L 617.812,677.495 L 618.76,675.715 L 619.669,673.895 L 620.579,672.04 L 621.449,670.144 L 622.283,668.251 L 623.115,666.319 L 623.949,664.387 L 624.707,662.379 L 625.464,660.409 L 626.221,658.364 L 626.221,438.345 L 625.956,435.465 L 625.653,432.663 L 625.312,429.897 L 624.896,427.171 L 624.441,424.48 L 623.949,421.828 L 623.381,419.253 L 622.737,416.676 L 622.056,414.176 L 621.335,411.715 L 620.579,409.289 L 619.744,406.94 L 618.873,404.592 L 617.927,402.32 L 616.941,400.084 L 615.917,397.888 L 614.857,395.727 L 613.721,393.607 L 612.547,391.523 L 611.297,389.515 L 610.008,387.507 L 608.683,385.575 L 607.32,383.681 L 605.88,381.825 L 604.403,380.007 L 602.888,378.225 L 601.296,376.484 L 599.705,374.78 L 598.039,373.112 L 596.296,371.521 L 594.553,369.931 L 592.736,368.377 L 590.879,366.899 L 588.985,365.421 L 587.015,364.021 L 585.045,362.619 L 583,361.292 L 580.917,360.005 L 578.757,358.717 L 576.599,357.505 L 574.363,356.331 L 572.091,355.156 L 569.779,354.057 L 567.431,352.997 L 565.045,351.936 L 562.583,350.951 L 560.12,350.004 L 557.583,349.056 L 555.007,348.185 L 552.392,347.315 L 549.74,346.52 L 547.052,345.724 L 544.285,344.965 L 541.521,344.284 L 538.68,343.601 L 535.839,342.959 L 532.923,342.352 L 529.968,341.784 L 526.975,341.253 L 523.944,340.761 L 520.876,340.268 L 517.769,339.852 L 514.627,339.472 L 511.444,339.095 L 511.444,263.747 L 511.481,263.483 L 511.481,263.179 L 511.444,262.876 L 511.368,262.611 L 511.292,262.308 L 511.179,262.004 L 511.027,261.701 L 510.876,261.399 L 510.649,261.095 L 510.421,260.792 L 509.891,260.185 L 509.285,259.58 L 508.565,258.973 L 507.769,258.367 L 506.86,257.761 L 505.913,257.193 L 504.928,256.625 L 503.829,256.056 L 502.693,255.488 L 501.52,254.957 L 500.307,254.428 L 499.056,253.935 L 497.807,253.481 L 496.481,253.027 L 495.156,252.609 L 493.829,252.231 L 492.504,251.889 L 491.177,251.549 L 489.852,251.283 L 488.564,251.056 L 487.276,250.829 L 486.027,250.677 L 484.776,250.564 L 483.601,250.488 L 482.465,250.488 L 481.367,250.527 L 480.344,250.601 L 321.321,250.601 L 320.148,250.601 L 319.011,250.601 L 317.912,250.601 L 316.852,250.677 L 315.791,250.753 L 314.729,250.829 L 313.707,250.943 L 312.723,251.056 L 311.739,251.247 L 310.791,251.397 L 309.844,251.587 L 308.935,251.815 L 308.064,252.079 L 307.192,252.344 L 306.359,252.609 L 305.525,252.912 L 304.503,253.329 L 303.555,253.784 L 302.645,254.276 L 301.737,254.807 L 300.904,255.337 L 300.071,255.943 L 299.275,256.549 L 298.517,257.193 L 297.797,257.912 L 297.116,258.633 L 296.472,259.389 L 295.865,260.185 L 295.297,261.019 L 294.768,261.889 L 294.275,262.8 L 293.783,263.747 L 293.783,336.707 L 290.373,337.313 L 287.001,337.92 L 283.668,338.564 L 280.372,339.245 L 277.115,339.927 L 273.895,340.647 L 270.713,341.368 L 267.568,342.163 L 264.5,342.92 L 261.432,343.753 L 258.403,344.588 L 255.448,345.42 L 252.493,346.329 L 249.613,347.239 L 246.772,348.148 L 243.969,349.133 L 241.241,350.117 L 238.515,351.103 L 235.863,352.163 L 233.249,353.224 L 230.711,354.323 L 228.173,355.459 L 225.711,356.596 L 223.325,357.808 L 220.939,359.02 L 218.628,360.269 L 216.392,361.52 L 214.196,362.847 L 212.036,364.172 L 209.952,365.535 L 207.907,366.937 L 205.9,368.377 L 203.968,369.855 L 202.112,371.332 L 200.293,372.885 L 198.512,374.439 L 196.845,376.067 L 195.18,377.696 L 193.588,379.363 L 192.073,381.068 L 190.633,382.809 L 189.232,384.591 L 187.907,386.409 L 186.619,388.265 L 185.405,390.12 L 184.269,392.053 L 183.209,394.023 L 182.187,396.031 L 181.239,398.076 L 180.368,400.16 L 179.535,402.243 L 178.815,404.44 L 178.132,406.637 L 177.829,407.736 L 177.527,408.872 L 177.224,410.009 L 176.996,411.147 L 176.504,413.456 L 176.125,415.805 L 175.784,418.229 L 175.557,420.692 L 175.368,423.155 L 175.292,425.692 L 175.255,428.268 L 175.292,430.883 L 175.405,433.572 L 175.405,661.963 L 176.315,664.841 L 176.769,666.243 L 177.261,667.644 L 177.755,669.047 L 178.284,670.448 L 178.815,671.849 L 179.383,673.213 L 179.951,674.577 L 180.557,675.941 L 181.201,677.305 L 181.845,678.631 L 182.527,679.956 L 183.209,681.283 L 183.928,682.608 L 184.687,683.935 L 185.444,685.221 L 186.239,686.509 L 187.035,687.76 L 187.907,689.048 L 188.777,690.299 L 189.648,691.548 L 190.557,692.799 L 191.505,694.011 L 192.489,695.261 L 193.475,696.473 L 194.535,697.648 L 195.596,698.859 L 196.657,700.033 L 197.793,701.208 L 198.929,702.383 L 200.103,703.557 L 201.316,704.693 L 202.528,705.829 L 203.816,706.965 L 205.104,708.065 L 206.429,709.201 L 207.793,710.3 L 209.195,711.36 L 210.635,712.459 L 212.073,713.52 L 213.589,714.581 L 215.104,715.641 L 216.657,716.701 L 218.287,717.724 L 219.916,718.747 L 221.581,719.769 L 223.287,720.793 L 225.029,721.779 L 226.809,722.763 L 228.628,723.748 L 230.484,724.695 L 232.377,725.643 L 234.309,726.627 L 236.28,727.537 L 238.287,728.483 L 240.332,729.392 L 242.455,730.301 L 244.575,731.211 L 246.735,732.083 L 248.971,732.992 L 251.243,733.863 L 253.516,734.696 L 255.864,735.567 L 255.675,738.18 L 255.484,740.796 L 255.333,743.371 L 255.22,745.984 L 255.181,748.561 L 255.144,751.136 L 255.181,753.636 L 255.257,756.136 L 255.409,758.637 L 255.636,761.061 L 255.903,763.411 L 256.053,764.585 L 256.243,765.759 L 256.432,766.895 L 256.659,768.032 L 256.887,769.131 L 257.152,770.229 L 257.416,771.328 L 257.72,772.388 L 258.061,773.411 L 258.403,774.435 L 258.78,775.457 L 259.159,776.441 L 259.576,777.389 L 259.993,778.336 L 260.485,779.283 L 260.939,780.155 L 261.471,781.064 L 262,781.896 L 262.568,782.731 L 263.175,783.525 L 263.781,784.321 L 264.463,785.041 L 265.145,785.76 L 265.827,786.48 L 266.584,787.125 L 267.341,787.769 L 268.137,788.375 L 268.971,788.98 L 269.841,789.512 L 270.751,790.041 L 271.66,790.496 L 272.645,790.951 L 273.629,791.367 L 274.652,791.747 L 275.751,792.087 L 276.849,792.428 L 277.987,792.693 L 279.161,792.921 L 280.372,793.109 L 281.623,793.3 L 282.911,793.413 L 284.236,793.489 L 292.645,794.967 L 301.055,796.329 L 309.465,797.655 L 317.836,798.907 L 326.208,800.08 L 330.375,800.611 L 334.541,801.141 L 338.709,801.671 L 342.875,802.125 L 347.004,802.619 L 351.171,803.035 L 355.339,803.452 L 359.468,803.831 L 363.596,804.209 L 367.763,804.551 L 371.892,804.853 L 376.02,805.156 L 380.149,805.423 L 384.279,805.649 L 388.408,805.876 L 392.499,806.028 L 396.628,806.179 L 400.719,806.331 L 404.848,806.407 L 408.939,806.481 L 413.029,806.52 Z "/>
	</g>
	<g id="Black_Layer">
		<path id="dp_path002" fill="black" fill-rule="evenodd" d="M 329.163,488.539 L 330.336,488.577 L 331.549,488.652 L 332.723,488.804 L 333.86,488.993 L 334.996,489.259 L 336.095,489.561 L 337.193,489.903 L 338.255,490.319 L 339.277,490.773 L 340.3,491.265 L 341.247,491.797 L 342.232,492.365 L 343.14,493.009 L 344.012,493.652 L 344.845,494.372 L 345.679,495.129 L 346.436,495.888 L 347.193,496.72 L 347.875,497.555 L 348.52,498.427 L 349.125,499.336 L 349.693,500.281 L 350.224,501.267 L 350.679,502.252 L 351.096,503.275 L 351.475,504.297 L 351.777,505.359 L 352.043,506.456 L 352.232,507.556 L 352.384,508.692 L 352.497,509.828 L 352.535,510.965 L 352.497,512.14 L 352.384,513.276 L 352.232,514.412 L 352.043,515.511 L 351.777,516.572 L 351.475,517.669 L 351.096,518.692 L 350.679,519.715 L 350.224,520.7 L 349.693,521.685 L 349.125,522.632 L 348.52,523.541 L 347.875,524.412 L 347.193,525.247 L 346.436,526.08 L 345.679,526.837 L 344.845,527.596 L 344.012,528.315 L 343.14,528.959 L 342.232,529.603 L 341.247,530.171 L 340.3,530.701 L 339.277,531.193 L 338.255,531.648 L 337.193,532.064 L 336.095,532.405 L 334.996,532.709 L 333.86,532.975 L 332.723,533.164 L 331.549,533.316 L 330.336,533.391 L 329.163,533.429 L 327.951,533.391 L 326.776,533.316 L 325.603,533.164 L 324.428,532.975 L 323.291,532.709 L 322.193,532.405 L 321.093,532.064 L 320.033,531.648 L 319.011,531.193 L 317.988,530.701 L 317.041,530.171 L 316.093,529.603 L 315.147,528.959 L 314.275,528.315 L 313.443,527.596 L 312.609,526.837 L 311.852,526.08 L 311.132,525.247 L 310.412,524.412 L 309.768,523.541 L 309.161,522.632 L 308.593,521.685 L 308.064,520.7 L 307.609,519.715 L 307.192,518.692 L 306.813,517.669 L 306.509,516.572 L 306.245,515.511 L 306.055,514.412 L 305.904,513.276 L 305.791,512.14 L 305.791,510.965 L 305.791,509.828 L 305.904,508.692 L 306.055,507.556 L 306.245,506.456 L 306.509,505.359 L 306.813,504.297 L 307.192,503.275 L 307.609,502.252 L 308.064,501.267 L 308.593,500.281 L 309.161,499.336 L 309.768,498.427 L 310.412,497.555 L 311.132,496.72 L 311.852,495.888 L 312.609,495.129 L 313.443,494.372 L 314.275,493.652 L 315.147,493.009 L 316.093,492.365 L 317.041,491.797 L 317.988,491.265 L 319.011,490.773 L 320.033,490.319 L 321.093,489.903 L 322.193,489.561 L 323.291,489.259 L 324.428,488.993 L 325.603,488.804 L 326.776,488.652 L 327.951,488.577 Z "/>
		<path id="dp_path003" fill="black" fill-rule="evenodd" d="M 284.388,526.496 L 287.191,529.035 L 290.071,531.496 L 292.987,533.845 L 295.904,536.193 L 298.859,538.429 L 301.813,540.588 L 304.843,542.672 L 307.873,544.68 L 310.943,546.612 L 314.011,548.507 L 317.155,550.287 L 320.299,552.029 L 323.443,553.695 L 326.663,555.287 L 329.883,556.801 L 333.14,558.241 L 336.436,559.643 L 339.732,560.969 L 343.065,562.219 L 346.397,563.393 L 349.807,564.492 L 353.216,565.553 L 356.627,566.537 L 360.073,567.447 L 363.559,568.28 L 367.081,569.076 L 370.604,569.796 L 374.165,570.477 L 377.764,571.083 L 381.361,571.615 L 384.961,572.069 L 388.636,572.485 L 392.309,572.825 L 395.984,573.128 L 399.733,573.356 L 403.447,573.508 L 407.235,573.621 L 411.023,573.697 L 414.811,573.697 L 418.675,573.621 L 422.5,573.508 L 426.401,573.319 L 430.304,573.092 L 434.205,572.788 L 438.145,572.447 L 442.123,572.031 L 446.1,571.576 L 450.115,571.083 L 454.131,570.515 L 458.145,569.909 L 462.236,569.228 L 466.328,568.508 L 470.42,567.749 L 474.548,566.917 L 478.677,566.045 L 482.844,565.136 L 487.011,564.151 L 491.216,563.128 L 495.459,562.068 L 499.663,560.931 L 503.943,559.756 L 508.224,558.544 L 512.504,557.295 L 516.823,556.007 L 516.747,558.811 L 516.672,561.613 L 516.52,564.379 L 516.368,567.105 L 516.104,569.833 L 515.837,572.523 L 515.497,575.175 L 515.117,577.827 L 514.663,580.403 L 514.133,582.979 L 513.565,585.516 L 512.959,588.016 L 512.277,590.48 L 511.52,592.904 L 510.685,595.328 L 509.815,597.677 L 508.868,599.988 L 507.807,602.297 L 507.277,603.397 L 506.747,604.533 L 506.14,605.632 L 505.572,606.731 L 504.928,607.829 L 504.323,608.889 L 503.679,609.951 L 502.997,611.011 L 502.315,612.072 L 501.595,613.095 L 500.875,614.117 L 500.117,615.14 L 499.36,616.163 L 498.565,617.148 L 497.731,618.133 L 496.897,619.08 L 496.065,620.065 L 495.193,620.973 L 494.284,621.921 L 493.375,622.868 L 492.427,623.777 L 491.481,624.648 L 490.496,625.557 L 489.472,626.428 L 488.449,627.3 L 487.427,628.135 L 486.329,628.967 L 485.231,629.8 L 484.132,630.596 L 482.959,631.392 L 481.821,632.187 L 480.609,632.983 L 479.397,633.741 L 478.147,634.46 L 476.897,635.219 L 475.608,635.937 L 474.283,636.619 L 472.957,637.339 L 471.593,638.021 L 470.192,638.664 L 468.791,639.309 L 467.351,639.953 L 465.873,640.597 L 464.359,641.203 L 462.843,641.771 L 461.291,642.377 L 459.736,642.908 L 458.145,643.476 L 456.479,644.007 L 454.849,644.536 L 453.145,645.029 L 451.441,645.523 L 449.699,646.013 L 447.917,646.468 L 446.137,646.885 L 444.32,647.34 L 442.463,647.757 L 440.569,648.136 L 438.675,648.513 L 436.705,648.893 L 434.736,649.233 L 432.765,649.575 L 430.72,649.877 L 428.636,650.181 L 426.553,650.484 L 424.432,650.749 L 420.113,651.204 L 415.644,651.62 L 411.061,651.961 L 406.325,652.265 L 401.477,652.455 L 396.513,652.607 L 391.4,652.643 L 386.136,652.643 L 380.756,652.568 L 375.263,652.416 L 369.581,652.188 L 363.785,651.848 L 357.876,651.469 L 355.717,651.28 L 353.633,651.091 L 351.549,650.863 L 349.504,650.636 L 347.535,650.371 L 345.565,650.105 L 343.633,649.803 L 341.739,649.5 L 339.884,649.196 L 338.064,648.855 L 336.284,648.477 L 334.541,648.097 L 332.8,647.719 L 331.132,647.303 L 329.465,646.848 L 327.875,646.431 L 326.284,645.939 L 324.731,645.484 L 323.177,644.991 L 321.7,644.461 L 320.261,643.931 L 318.821,643.4 L 317.42,642.832 L 316.056,642.264 L 314.729,641.696 L 313.404,641.089 L 312.116,640.445 L 310.904,639.839 L 309.655,639.157 L 308.48,638.513 L 307.305,637.832 L 306.168,637.151 L 305.071,636.429 L 304.009,635.709 L 302.949,634.991 L 301.927,634.232 L 300.941,633.475 L 299.957,632.68 L 299.009,631.884 L 298.1,631.089 L 297.191,630.293 L 296.32,629.46 L 295.487,628.625 L 294.653,627.755 L 293.896,626.883 L 293.1,626.012 L 292.38,625.141 L 291.623,624.232 L 290.941,623.323 L 290.259,622.415 L 289.616,621.467 L 288.971,620.52 L 288.365,619.535 L 287.797,618.588 L 287.229,617.603 L 286.661,616.617 L 286.168,615.595 L 285.639,614.611 L 285.184,613.588 L 284.691,612.527 L 284.275,611.504 L 283.82,610.443 L 283.441,609.381 L 283.061,608.321 L 282.343,606.124 L 281.699,603.927 L 281.129,601.692 L 280.6,599.42 L 280.184,597.071 L 279.804,594.76 L 279.464,592.373 L 279.197,589.948 L 279.009,587.525 L 278.857,585.061 L 278.744,582.6 L 278.707,580.061 L 278.707,577.561 L 278.744,574.985 L 278.82,572.409 L 278.933,569.796 L 279.123,567.181 L 279.312,564.568 L 279.539,561.916 L 279.767,559.227 L 280.069,556.575 L 280.372,553.885 L 281.055,548.429 L 281.812,542.975 L 282.645,537.52 L 283.516,531.989 Z "/>
		<path id="dp_path004" fill="black" fill-rule="evenodd" d="M 461.896,488.539 L 463.108,488.577 L 464.283,488.652 L 465.456,488.804 L 466.593,488.993 L 467.729,489.259 L 468.828,489.561 L 469.927,489.903 L 470.988,490.319 L 472.011,490.773 L 473.033,491.265 L 474.017,491.797 L 474.965,492.365 L 475.875,493.009 L 476.745,493.652 L 477.616,494.372 L 478.412,495.129 L 479.208,495.888 L 479.927,496.72 L 480.609,497.555 L 481.291,498.427 L 481.897,499.336 L 482.465,500.281 L 482.959,501.267 L 483.449,502.252 L 483.867,503.275 L 484.208,504.297 L 484.549,505.359 L 484.776,506.456 L 485.004,507.556 L 485.155,508.692 L 485.231,509.828 L 485.268,510.965 L 485.231,512.14 L 485.155,513.276 L 485.004,514.412 L 484.776,515.511 L 484.549,516.572 L 484.208,517.669 L 483.867,518.692 L 483.449,519.715 L 482.959,520.7 L 482.465,521.685 L 481.897,522.632 L 481.291,523.541 L 480.609,524.412 L 479.927,525.247 L 479.208,526.08 L 478.412,526.837 L 477.616,527.596 L 476.745,528.315 L 475.875,528.959 L 474.965,529.603 L 474.017,530.171 L 473.033,530.701 L 472.011,531.193 L 470.988,531.648 L 469.927,532.064 L 468.828,532.405 L 467.729,532.709 L 466.593,532.975 L 465.456,533.164 L 464.283,533.316 L 463.108,533.391 L 461.896,533.429 L 460.684,533.391 L 459.509,533.316 L 458.336,533.164 L 457.199,532.975 L 456.063,532.709 L 454.964,532.405 L 453.865,532.064 L 452.804,531.648 L 451.781,531.193 L 450.759,530.701 L 449.775,530.171 L 448.827,529.603 L 447.917,528.959 L 447.047,528.315 L 446.175,527.596 L 445.38,526.837 L 444.584,526.08 L 443.865,525.247 L 443.184,524.412 L 442.501,523.541 L 441.895,522.632 L 441.365,521.685 L 440.835,520.7 L 440.38,519.715 L 439.963,518.692 L 439.584,517.669 L 439.243,516.572 L 439.016,515.511 L 438.788,514.412 L 438.637,513.276 L 438.561,512.14 L 438.524,510.965 L 438.561,509.828 L 438.637,508.692 L 438.788,507.556 L 439.016,506.456 L 439.243,505.359 L 439.584,504.297 L 439.963,503.275 L 440.38,502.252 L 440.835,501.267 L 441.365,500.281 L 441.895,499.336 L 442.501,498.427 L 443.184,497.555 L 443.865,496.72 L 444.584,495.888 L 445.38,495.129 L 446.175,494.372 L 447.047,493.652 L 447.917,493.009 L 448.827,492.365 L 449.775,491.797 L 450.759,491.265 L 451.781,490.773 L 452.804,490.319 L 453.865,489.903 L 454.964,489.561 L 456.063,489.259 L 457.199,488.993 L 458.336,488.804 L 459.509,488.652 L 460.684,488.577 Z "/>
	</g>
	<g id="Red_Layer">
		<path id="dp_path005" fill="red" fill-rule="evenodd" d="M 338.443,636.923 L 337.08,636.696 L 335.716,636.429 L 334.428,636.164 L 333.177,635.861 L 332.004,635.559 L 330.829,635.255 L 329.731,634.915 L 328.671,634.536 L 327.648,634.196 L 326.7,633.777 L 325.753,633.4 L 324.881,632.983 L 324.049,632.567 L 323.253,632.112 L 322.496,631.657 L 321.813,631.203 L 321.132,630.709 L 320.525,630.217 L 319.92,629.725 L 319.389,629.195 L 318.897,628.664 L 318.443,628.135 L 318.025,627.603 L 317.647,627.073 L 317.307,626.505 L 317.003,625.937 L 316.739,625.369 L 316.511,624.763 L 316.321,624.195 L 316.169,623.588 L 316.056,623.02 L 316.019,622.415 L 315.98,621.808 L 315.943,621.201 L 315.98,620.595 L 316.056,619.951 L 316.169,619.345 L 316.284,618.74 L 316.472,618.095 L 316.661,617.489 L 316.927,616.883 L 317.193,616.24 L 317.496,615.633 L 317.836,614.988 L 318.177,614.383 L 318.593,613.776 L 319.011,613.169 L 319.465,612.527 L 319.957,611.92 L 320.488,611.315 L 321.019,610.747 L 321.624,610.14 L 322.193,609.533 L 322.836,608.965 L 323.519,608.397 L 324.2,607.829 L 324.92,607.261 L 325.64,606.692 L 326.397,606.163 L 327.193,605.632 L 328.027,605.101 L 328.859,604.572 L 329.731,604.079 L 330.64,603.587 L 331.549,603.093 L 332.496,602.601 L 333.443,602.147 L 334.428,601.692 L 335.451,601.275 L 336.473,600.859 L 337.496,600.443 L 338.595,600.025 L 339.693,599.647 L 340.792,599.307 L 341.929,598.965 L 343.065,598.624 L 344.239,598.32 L 345.413,598.017 L 346.625,597.715 L 347.875,597.487 L 349.125,597.223 L 350.375,596.995 L 351.625,596.805 L 352.952,596.616 L 354.239,596.464 L 355.565,596.313 L 356.891,596.2 L 358.255,596.123 L 359.619,596.048 L 361.02,596.009 L 362.423,595.972 L 363.823,595.972 L 365.263,596.009 L 366.664,596.048 L 368.141,596.123 L 369.581,596.237 L 371.059,596.351 L 372.536,596.503 L 374.013,596.691 L 375.529,596.881 L 377.043,597.145 L 378.559,597.411 L 380.112,597.715 L 381.627,598.017 L 383.18,598.397 L 384.733,598.775 L 386.287,599.192 L 387.877,599.647 L 389.431,600.139 L 391.021,600.669 L 392.613,601.2 L 394.204,601.807 L 395.795,602.412 L 397.385,603.056 L 399.013,603.776 L 400.605,604.495 L 402.233,605.253 L 403.863,606.049 L 405.455,606.881 L 407.083,607.753 L 408.712,608.663 L 410.34,609.611 L 411.969,610.633 L 413.597,611.656 L 415.227,612.716 L 416.856,613.815 L 418.485,614.988 L 420.113,616.163 L 420.872,616.769 L 421.591,617.337 L 422.273,617.944 L 422.879,618.512 L 423.485,619.117 L 424.016,619.685 L 424.471,620.292 L 424.924,620.86 L 425.341,621.428 L 425.681,622.035 L 425.985,622.603 L 426.251,623.171 L 426.477,623.74 L 426.668,624.308 L 426.819,624.876 L 426.932,625.405 L 427.008,625.975 L 427.045,626.505 L 427.045,627.035 L 426.971,627.603 L 426.895,628.135 L 426.781,628.625 L 426.629,629.157 L 426.44,629.687 L 426.213,630.18 L 425.948,630.672 L 425.645,631.164 L 425.304,631.657 L 424.924,632.112 L 424.545,632.567 L 424.129,633.021 L 423.675,633.475 L 423.181,633.929 L 422.652,634.347 L 422.084,634.764 L 421.516,635.141 L 420.909,635.559 L 420.265,635.937 L 419.621,636.316 L 418.94,636.657 L 418.22,637.036 L 417.463,637.339 L 415.909,637.983 L 415.075,638.287 L 414.243,638.589 L 413.371,638.855 L 412.5,639.12 L 410.643,639.575 L 408.712,639.991 L 406.704,640.332 L 404.62,640.635 L 402.461,640.825 L 400.264,640.976 L 397.953,641.052 L 395.605,641.052 L 392.045,640.825 L 388.484,640.597 L 381.324,640.256 L 374.127,639.916 L 366.968,639.575 L 363.407,639.384 L 359.808,639.157 L 356.248,638.893 L 352.687,638.589 L 349.125,638.248 L 345.565,637.869 L 342.004,637.415 Z "/>
	</g>
	<g id="Blue_Helmet">
		<path id="dp_path006" fill="#1b87f4" fill-rule="evenodd" d="M 179.421,739.432 L 178.096,739.393 L 176.732,739.319 L 175.823,739.204 L 174.875,739.052 L 173.967,738.9 L 173.057,738.712 L 172.187,738.521 L 171.315,738.257 L 170.444,737.992 L 169.572,737.689 L 168.739,737.348 L 167.905,736.969 L 167.071,736.589 L 166.276,736.173 L 165.48,735.719 L 164.723,735.264 L 163.965,734.772 L 163.208,734.241 L 162.488,733.673 L 161.768,733.105 L 161.087,732.499 L 160.405,731.855 L 159.761,731.211 L 159.116,730.492 L 158.511,729.809 L 157.905,729.051 L 157.336,728.293 L 156.807,727.499 L 156.276,726.665 L 155.745,725.831 L 155.291,724.96 L 154.836,724.089 L 154.383,723.18 L 154.003,722.233 L 153.435,720.869 L 152.867,719.429 L 152.336,717.839 L 151.805,716.133 L 151.276,714.315 L 150.783,712.384 L 150.291,710.376 L 149.799,708.216 L 149.344,705.943 L 148.889,703.595 L 148.435,701.132 L 147.98,698.595 L 147.564,695.943 L 147.147,693.177 L 146.768,690.336 L 146.389,687.381 L 146.009,684.351 L 145.632,681.244 L 145.291,678.063 L 144.987,674.767 L 144.647,671.395 L 144.344,667.947 L 143.776,660.864 L 143.283,653.439 L 142.828,645.787 L 142.412,637.832 L 142.071,629.649 L 141.805,621.277 L 141.616,612.679 L 141.464,603.852 L 141.389,594.911 L 141.389,585.781 L 141.427,576.5 L 141.577,567.144 L 141.768,557.636 L 142.032,548.052 L 142.373,538.391 L 142.791,528.693 L 143.283,518.957 L 143.851,509.184 L 144.192,504.297 L 144.496,499.411 L 144.873,494.524 L 145.252,489.675 L 145.632,484.788 L 146.048,479.939 L 146.503,475.091 L 146.957,470.241 L 147.412,465.431 L 147.941,460.62 L 148.435,455.847 L 149.003,451.073 L 149.571,446.339 L 150.139,441.64 L 150.745,436.943 L 151.389,432.284 L 152.033,427.661 L 152.715,423.079 L 153.396,418.532 L 154.116,414.024 L 154.873,409.555 L 155.632,405.123 L 156.428,400.728 L 157.223,396.409 L 158.057,392.129 L 158.928,387.887 L 159.799,383.719 L 160.708,379.589 L 161.655,375.499 L 162.603,371.483 L 163.587,367.544 L 164.571,363.68 L 165.595,359.853 L 166.655,356.103 L 167.753,352.428 L 168.852,348.829 L 169.989,345.307 L 171.125,341.821 L 172.3,338.449 L 173.512,335.155 L 174.761,331.935 L 176.012,328.828 L 177.3,325.76 L 178.625,322.843 L 179.951,319.964 L 181.315,317.199 L 182.716,314.508 L 184.119,311.932 L 185.557,309.471 L 187.035,307.083 L 187.793,305.947 L 188.551,304.849 L 189.308,303.751 L 190.065,302.652 L 190.861,301.628 L 191.619,300.605 L 192.413,299.621 L 193.209,298.675 L 194.005,297.727 L 194.839,296.817 L 195.635,295.947 L 196.467,295.113 L 197.3,294.279 L 198.135,293.523 L 199.005,292.765 L 199.839,292.007 L 200.709,291.324 L 201.581,290.643 L 202.452,290.036 L 203.323,289.431 L 204.232,288.863 L 205.104,288.295 L 206.013,287.801 L 206.923,287.309 L 207.869,286.855 L 208.777,286.439 L 209.725,286.059 L 210.672,285.719 L 211.619,285.416 L 212.567,285.112 L 213.513,284.884 L 214.499,284.657 L 215.483,284.468 L 216.468,284.355 L 217.453,284.241 L 218.476,284.165 L 219.461,284.127 L 220.484,284.127 L 221.507,284.165 L 222.529,284.203 L 220.635,286.513 L 218.855,288.749 L 217.188,290.871 L 215.635,292.953 L 214.196,295 L 212.869,296.969 L 211.657,298.901 L 210.521,300.795 L 209.497,302.652 L 208.551,304.508 L 207.719,306.327 L 207.339,307.197 L 206.997,308.107 L 206.657,309.015 L 206.355,309.925 L 206.051,310.835 L 205.787,311.705 L 205.52,312.615 L 205.293,313.524 L 205.104,314.433 L 204.915,315.341 L 204.764,316.289 L 204.612,317.199 L 204.384,319.055 L 204.309,320.001 L 204.232,320.987 L 204.157,322.919 L 204.157,324.925 L 204.232,326.972 L 204.345,329.055 L 204.573,331.252 L 204.8,333.488 L 205.141,335.836 L 205.52,338.223 L 205.975,340.723 L 206.468,343.336 L 206.997,346.065 L 207.604,348.868 L 208.248,351.823 L 207.528,351.52 L 206.771,351.292 L 206.013,351.065 L 205.293,350.876 L 204.573,350.724 L 203.855,350.611 L 203.135,350.497 L 202.415,350.459 L 201.695,350.42 L 201.012,350.42 L 200.293,350.497 L 199.612,350.535 L 198.929,350.648 L 198.248,350.8 L 197.565,350.951 L 196.884,351.14 L 196.203,351.368 L 195.557,351.633 L 194.913,351.936 L 194.232,352.24 L 193.588,352.58 L 192.944,352.959 L 192.3,353.376 L 191.693,353.792 L 191.051,354.247 L 190.444,354.74 L 189.8,355.269 L 189.193,355.8 L 188.588,356.369 L 187.981,356.975 L 187.413,357.619 L 186.808,358.263 L 186.239,358.944 L 185.633,359.664 L 185.064,360.383 L 184.496,361.141 L 183.36,362.732 L 182.261,364.399 L 181.164,366.217 L 180.103,368.073 L 179.041,370.081 L 178.019,372.128 L 177.035,374.287 L 176.049,376.56 L 175.064,378.871 L 174.119,381.295 L 173.209,383.795 L 172.3,386.371 L 171.428,389.023 L 170.557,391.749 L 169.685,394.553 L 168.889,397.432 L 168.095,400.388 L 167.299,403.417 L 166.541,406.485 L 165.784,409.669 L 165.064,412.851 L 164.383,416.147 L 163.7,419.48 L 163.019,422.851 L 162.375,426.299 L 161.768,429.784 L 161.163,433.307 L 160.593,436.905 L 160.025,440.543 L 159.496,444.216 L 159.003,447.967 L 158.473,451.717 L 158.019,455.543 L 157.564,459.369 L 157.109,463.233 L 156.693,467.135 L 156.313,471.076 L 155.935,475.053 L 155.593,479.031 L 155.253,483.045 L 154.951,487.1 L 154.647,491.152 L 154.383,495.243 L 154.155,499.336 L 153.928,503.465 L 153.7,507.593 L 153.511,511.723 L 153.359,515.851 L 153.208,520.019 L 153.056,524.148 L 152.98,528.315 L 152.867,532.481 L 152.791,540.777 L 152.753,544.945 L 152.753,549.075 L 152.753,553.241 L 152.791,557.333 L 152.867,561.461 L 152.941,565.553 L 153.056,569.644 L 153.169,573.697 L 153.321,577.751 L 153.473,581.767 L 153.661,585.744 L 153.851,589.721 L 154.079,593.661 L 154.344,597.563 L 154.609,601.427 L 154.873,605.253 L 155.177,609.079 L 155.519,612.829 L 155.86,616.543 L 156.239,620.253 L 156.655,623.853 L 157.033,627.452 L 157.488,631.012 L 157.943,634.499 L 158.397,637.945 L 158.889,641.316 L 159.42,644.651 L 159.951,647.908 L 160.519,651.129 L 161.087,654.272 L 161.693,657.34 L 162.299,660.372 L 162.943,663.327 L 163.625,666.205 L 164.307,669.008 L 164.989,671.736 L 165.708,674.388 L 166.467,676.964 L 167.223,679.464 L 168.019,681.889 L 168.815,684.199 L 169.648,686.435 L 170.519,688.593 L 171.391,690.677 L 172.261,692.648 L 173.171,694.541 L 174.119,696.321 L 175.064,697.988 L 176.049,699.58 L 177.035,701.056 L 178.057,702.459 L 178.587,703.103 L 179.08,703.747 L 179.609,704.315 L 180.141,704.883 L 180.709,705.452 L 181.239,705.943 L 181.769,706.436 L 182.337,706.891 L 182.905,707.345 L 183.473,707.724 L 183.664,708.103 L 183.891,708.481 L 184.232,708.823 L 184.573,709.239 L 184.989,709.617 L 185.481,709.997 L 186.012,710.413 L 186.543,710.831 L 187.793,711.663 L 189.193,712.497 L 190.709,713.331 L 192.3,714.164 L 193.816,714.884 L 195.331,715.604 L 196.884,716.285 L 198.437,716.967 L 199.989,717.573 L 201.543,718.179 L 203.02,718.747 L 204.46,719.279 L 205.787,719.733 L 207.073,720.149 L 208.209,720.491 L 209.232,720.756 L 210.141,720.983 L 210.861,721.133 L 211.429,721.172 L 211.619,721.172 L 211.771,721.172 L 210.861,722.308 L 209.952,723.408 L 209.005,724.505 L 208.059,725.528 L 207.073,726.551 L 206.127,727.499 L 205.141,728.408 L 204.157,729.279 L 203.135,730.151 L 202.149,730.945 L 201.127,731.703 L 200.103,732.423 L 199.08,733.143 L 198.057,733.787 L 197.035,734.393 L 195.975,734.999 L 194.952,735.529 L 193.891,736.021 L 192.868,736.515 L 191.808,736.931 L 190.785,737.348 L 189.725,737.689 L 188.703,738.029 L 187.641,738.332 L 186.619,738.597 L 185.557,738.825 L 184.535,739.015 L 183.512,739.167 L 182.489,739.28 L 181.467,739.355 L 180.444,739.393 Z M 393.825,666.433 L 294.464,666.433 L 292.456,666.319 L 290.487,666.205 L 288.516,666.092 L 286.623,665.901 L 284.729,665.713 L 282.873,665.524 L 281.055,665.296 L 279.275,665.031 L 277.493,664.765 L 275.789,664.463 L 274.084,664.16 L 272.417,663.819 L 270.789,663.44 L 269.16,663.061 L 267.607,662.683 L 266.055,662.265 L 264.5,661.811 L 263.023,661.356 L 261.545,660.864 L 260.107,660.372 L 258.705,659.879 L 257.303,659.311 L 255.977,658.781 L 254.613,658.212 L 253.325,657.607 L 252.039,657 L 250.788,656.356 L 249.576,655.712 L 248.364,655.068 L 247.189,654.385 L 246.015,653.665 L 244.877,652.947 L 243.78,652.227 L 242.681,651.469 L 241.62,650.711 L 240.597,649.955 L 239.575,649.159 L 238.591,648.325 L 237.605,647.491 L 236.659,646.659 L 235.712,645.787 L 234.803,644.916 L 233.932,644.044 L 233.06,643.135 L 232.188,642.225 L 231.355,641.316 L 230.56,640.371 L 229.764,639.423 L 229.007,638.437 L 228.248,637.453 L 227.491,636.468 L 226.771,635.445 L 226.089,634.423 L 225.408,633.4 L 224.083,631.316 L 222.832,629.157 L 221.657,626.96 L 220.521,624.724 L 219.461,622.451 L 218.439,620.14 L 217.491,617.792 L 216.544,615.405 L 215.709,612.981 L 214.877,610.519 L 214.119,608.056 L 213.4,605.517 L 212.68,602.98 L 212.036,600.443 L 211.429,597.829 L 210.824,595.213 L 210.255,592.6 L 209.725,589.948 L 209.232,587.259 L 208.741,584.569 L 208.287,581.88 L 207.377,576.463 L 206.544,570.969 L 204.952,559.984 L 204.157,554.491 L 203.323,549.036 L 202.452,543.581 L 201.997,540.891 L 201.505,538.203 L 201.392,531.535 L 201.316,524.867 L 201.316,518.276 L 201.355,515.017 L 201.392,511.76 L 201.429,508.501 L 201.543,505.283 L 201.657,502.063 L 201.809,498.917 L 201.96,495.736 L 202.187,492.629 L 202.415,489.523 L 202.717,486.455 L 203.02,483.387 L 203.4,480.393 L 203.816,477.401 L 204.271,474.484 L 204.764,471.567 L 205.293,468.727 L 205.9,465.885 L 206.581,463.12 L 207.264,460.353 L 208.059,457.665 L 208.892,455.051 L 209.764,452.437 L 210.709,449.899 L 211.771,447.399 L 212.301,446.187 L 212.832,444.975 L 213.4,443.761 L 214.005,442.588 L 214.612,441.413 L 215.255,440.239 L 215.9,439.103 L 216.544,437.965 L 217.225,436.868 L 217.945,435.768 L 218.665,434.709 L 219.384,433.609 L 220.18,432.587 L 220.939,431.525 L 221.733,430.541 L 222.567,429.519 L 223.439,428.533 L 224.309,427.587 L 225.18,426.639 L 226.089,425.692 L 227.036,424.783 L 227.984,423.873 L 228.968,423.003 L 229.953,422.132 L 230.976,421.299 L 232.037,420.464 L 233.097,419.669 L 234.196,418.873 L 235.332,418.079 L 236.468,417.357 L 237.643,416.601 L 238.855,415.919 L 240.068,415.199 L 241.317,414.555 L 242.605,413.911 L 243.893,413.267 L 245.219,412.66 L 246.583,412.055 L 247.947,411.487 L 249.348,410.956 L 250.788,410.425 L 252.265,409.933 L 253.743,409.441 L 255.257,408.985 L 256.811,408.569 L 258.403,408.153 L 259.993,407.736 L 261.621,407.395 L 263.288,407.053 L 264.993,406.713 L 266.697,406.411 L 268.477,406.145 L 270.259,405.917 L 272.077,405.691 L 273.895,405.463 L 275.789,405.312 L 277.721,405.16 L 279.652,405.008 L 281.623,404.895 L 283.629,404.857 L 285.676,404.781 L 287.721,404.781 L 289.843,404.781 L 291.964,404.781 L 294.161,404.857 L 296.359,404.933 L 298.593,405.047 L 300.865,405.16 L 512.429,405.16 L 516.104,405.16 L 517.884,405.199 L 519.664,405.236 L 521.407,405.312 L 523.111,405.388 L 524.816,405.501 L 526.483,405.615 L 528.149,405.767 L 529.779,405.917 L 531.369,406.108 L 532.96,406.335 L 534.551,406.563 L 536.065,406.789 L 537.62,407.053 L 539.097,407.357 L 540.575,407.66 L 542.052,407.963 L 543.491,408.304 L 544.892,408.683 L 546.295,409.063 L 547.695,409.441 L 549.021,409.857 L 550.385,410.312 L 551.672,410.767 L 552.961,411.221 L 554.249,411.715 L 555.499,412.205 L 556.749,412.737 L 557.961,413.267 L 559.173,413.835 L 560.347,414.404 L 561.484,415.009 L 562.62,415.616 L 563.756,416.221 L 564.856,416.867 L 565.916,417.548 L 567.015,418.192 L 568.037,418.912 L 569.06,419.593 L 570.083,420.351 L 571.068,421.071 L 572.053,421.828 L 573,422.587 L 573.947,423.381 L 574.856,424.177 L 575.765,425.011 L 576.636,425.844 L 577.508,426.715 L 578.379,427.548 L 579.212,428.457 L 580.045,429.329 L 580.84,430.239 L 581.599,431.185 L 582.395,432.093 L 583.152,433.08 L 583.872,434.027 L 584.591,435.012 L 585.992,437.019 L 587.356,439.065 L 588.607,441.187 L 589.819,443.345 L 590.992,445.581 L 592.092,447.853 L 593.115,450.164 L 594.099,452.551 L 595.047,454.975 L 595.917,457.437 L 596.751,459.937 L 597.547,462.515 L 598.265,465.128 L 598.947,467.741 L 599.592,470.469 L 600.16,473.196 L 600.691,475.961 L 601.183,478.764 L 601.637,481.644 L 602.053,484.523 L 602.433,487.44 L 602.736,490.395 L 603.04,493.425 L 603.267,496.456 L 603.493,499.524 L 603.683,502.593 L 603.796,505.737 L 603.911,508.881 L 603.985,512.101 L 604.024,515.321 L 604.024,518.541 L 604.024,521.837 L 603.985,525.132 L 603.911,528.428 L 603.796,531.8 L 603.911,535.057 L 604.024,538.316 L 604.063,541.536 L 604.099,544.717 L 604.063,547.861 L 604.024,550.968 L 603.948,553.999 L 603.796,557.029 L 603.608,560.021 L 603.417,562.94 L 603.153,565.856 L 602.849,568.697 L 602.508,571.537 L 602.131,574.303 L 601.713,577.031 L 601.221,579.721 L 600.691,582.335 L 600.121,584.909 L 599.516,587.487 L 598.872,589.948 L 598.152,592.411 L 597.395,594.797 L 596.599,597.145 L 595.728,599.457 L 594.819,601.692 L 593.872,603.889 L 592.849,606.049 L 591.788,608.132 L 590.652,610.179 L 589.479,612.147 L 588.265,614.079 L 586.979,615.936 L 585.652,617.753 L 584.249,619.535 L 582.772,621.201 L 582.015,622.035 L 581.257,622.868 L 579.704,624.421 L 578.076,625.975 L 577.204,626.695 L 576.372,627.415 L 575.5,628.135 L 574.628,628.816 L 573.72,629.497 L 572.811,630.18 L 571.863,630.824 L 570.917,631.429 L 569.969,632.073 L 568.984,632.641 L 567.999,633.248 L 566.976,633.816 L 565.953,634.347 L 564.893,634.877 L 563.833,635.407 L 562.772,635.9 L 561.673,636.392 L 560.575,636.884 L 559.439,637.301 L 558.301,637.756 L 557.128,638.173 L 555.953,638.589 L 554.779,638.968 L 553.567,639.348 L 552.317,639.688 L 551.104,640.029 L 548.567,640.635 L 547.24,640.9 L 545.953,641.165 L 544.627,641.431 L 543.263,641.657 L 540.499,642.075 L 537.695,642.377 L 534.779,642.643 L 531.824,642.832 L 528.793,642.945 L 525.649,642.984 L 522.467,642.945 L 519.209,642.832 L 515.876,642.643 L 512.429,642.377 L 405.075,642.377 L 404.659,644.461 L 404.243,646.545 L 403.749,648.665 L 403.484,649.688 L 403.181,650.749 L 402.879,651.772 L 402.5,652.833 L 402.12,653.856 L 401.704,654.916 L 401.249,655.939 L 400.757,657 L 400.188,658.061 L 399.62,659.084 L 399.052,659.992 L 398.445,660.94 L 397.803,661.849 L 397.081,662.759 L 396.363,663.667 L 395.568,664.576 L 394.733,665.524 Z M 646.072,385.727 L 645.163,385.461 L 644.253,385.196 L 643.381,384.932 L 642.511,384.628 L 641.676,384.287 L 640.805,383.909 L 639.972,383.529 L 639.176,383.113 L 638.381,382.659 L 637.585,382.204 L 636.791,381.712 L 636.033,381.219 L 635.276,380.688 L 634.517,380.12 L 633.76,379.552 L 633.04,378.945 L 632.244,378.264 L 631.488,377.544 L 630.729,376.787 L 629.972,376.029 L 629.215,375.233 L 628.495,374.439 L 627.775,373.605 L 627.056,372.733 L 626.373,371.861 L 625.653,370.953 L 624.328,369.096 L 623.04,367.164 L 621.752,365.157 L 620.427,362.732 L 619.063,360.347 L 617.699,357.96 L 616.335,355.649 L 613.569,351.027 L 610.728,346.481 L 607.888,342.011 L 604.971,337.655 L 602.017,333.336 L 599.061,329.132 L 597.053,326.365 L 595.084,323.639 L 593.076,320.948 L 591.031,318.296 L 588.985,315.683 L 586.94,313.069 L 584.856,310.493 L 582.772,307.955 L 580.689,305.455 L 578.568,302.955 L 576.447,300.492 L 574.325,298.031 L 572.167,295.605 L 570.008,293.22 L 567.848,290.832 L 565.688,288.484 L 567.165,288.787 L 568.681,289.165 L 570.197,289.545 L 571.673,289.961 L 573.151,290.416 L 574.628,290.908 L 576.105,291.439 L 577.583,291.969 L 579.023,292.575 L 580.463,293.181 L 581.901,293.863 L 583.34,294.545 L 584.781,295.265 L 586.183,296.023 L 587.584,296.856 L 589.024,297.689 L 590.387,298.56 L 591.788,299.469 L 593.152,300.417 L 594.516,301.401 L 595.879,302.424 L 597.243,303.485 L 598.607,304.583 L 599.933,305.72 L 601.259,306.895 L 602.585,308.107 L 603.911,309.357 L 605.199,310.644 L 606.485,311.971 L 607.775,313.372 L 609.063,314.773 L 610.349,316.213 L 611.6,317.728 L 612.849,319.244 L 614.1,320.835 L 615.312,322.464 L 616.563,324.093 L 617.775,325.797 L 618.987,327.54 L 620.199,329.359 L 621.373,331.177 L 622.547,333.033 L 623.721,334.965 L 624.896,336.935 L 626.033,338.943 L 627.169,340.988 L 628.305,343.072 L 629.441,345.193 L 630.54,347.391 L 631.639,349.625 L 632.737,351.899 L 633.836,354.208 L 634.896,356.557 L 635.957,358.983 L 637.017,361.444 L 638.079,363.944 L 639.101,366.483 L 640.124,369.096 L 641.147,371.748 L 642.169,374.439 L 643.153,377.165 L 644.14,379.968 L 645.085,382.809 Z M 180.784,753.296 L 182.679,753.259 L 184.648,753.181 L 186.656,753.107 L 188.703,752.993 L 402.537,752.463 L 402.537,739.052 L 620.124,742.007 L 625.237,741.628 L 627.661,741.439 L 630.011,741.212 L 632.244,740.984 L 634.404,740.719 L 636.488,740.455 L 638.495,740.151 L 640.427,739.848 L 642.245,739.545 L 644.025,739.204 L 645.692,738.864 L 647.321,738.521 L 648.837,738.144 L 650.315,737.725 L 651.715,737.309 L 653.041,736.893 L 654.329,736.439 L 655.541,735.947 L 656.679,735.453 L 657.737,734.923 L 658.761,734.393 L 659.747,733.863 L 660.656,733.295 L 661.488,732.688 L 662.284,732.044 L 663.041,731.437 L 663.761,730.756 L 664.405,730.073 L 665.012,729.355 L 665.58,728.635 L 666.072,727.877 L 666.565,727.083 L 666.981,726.285 L 667.399,725.453 L 667.739,724.581 L 668.08,723.711 L 668.383,722.801 L 668.611,721.892 L 668.876,720.907 L 669.065,719.921 L 669.216,718.899 L 669.368,717.876 L 669.519,716.779 L 669.595,715.679 L 669.708,714.581 L 669.821,712.232 L 669.86,709.732 L 669.86,707.156 L 669.821,704.429 L 669.747,701.587 L 669.595,695.488 L 669.557,692.268 L 669.519,688.859 L 669.519,418.003 L 669.331,414.592 L 669.103,411.221 L 668.876,407.888 L 668.535,404.553 L 668.193,401.259 L 667.815,398.001 L 667.36,394.743 L 666.905,391.561 L 666.376,388.379 L 665.808,385.196 L 665.201,382.091 L 664.557,378.984 L 663.837,375.877 L 663.117,372.847 L 662.36,369.816 L 661.564,366.824 L 660.692,363.869 L 659.821,360.915 L 658.875,357.997 L 657.928,355.117 L 656.905,352.24 L 655.883,349.397 L 654.784,346.595 L 653.685,343.829 L 652.511,341.064 L 651.337,338.336 L 650.087,335.647 L 648.837,332.957 L 647.549,330.305 L 646.185,327.691 L 644.821,325.077 L 643.42,322.539 L 641.98,320.001 L 640.54,317.464 L 639.025,314.963 L 637.472,312.539 L 635.919,310.076 L 634.328,307.689 L 632.699,305.304 L 631.033,302.955 L 629.328,300.605 L 627.585,298.333 L 625.843,296.06 L 624.063,293.788 L 622.244,291.591 L 620.388,289.393 L 618.532,287.233 L 616.601,285.075 L 614.668,282.952 L 612.736,280.869 L 610.728,278.823 L 608.721,276.777 L 606.676,274.771 L 604.592,272.8 L 602.508,270.868 L 600.388,268.937 L 598.228,267.041 L 596.069,265.148 L 593.872,263.331 L 591.637,261.512 L 589.401,259.693 L 587.129,257.951 L 584.856,256.208 L 582.545,254.504 L 580.197,252.799 L 577.849,251.132 L 575.463,249.504 L 573.037,247.912 L 570.613,246.321 L 568.188,244.768 L 565.688,243.252 L 563.227,241.775 L 560.688,240.297 L 558.188,238.859 L 555.651,237.419 L 553.075,236.017 L 550.499,234.653 L 547.885,233.327 L 545.272,232.001 L 542.62,230.752 L 539.968,229.464 L 537.316,228.252 L 534.627,227.039 L 531.899,225.864 L 529.211,224.728 L 526.444,223.592 L 523.717,222.493 L 520.952,221.432 L 518.187,220.371 L 515.384,219.348 L 512.581,218.364 L 509.74,217.417 L 506.936,216.471 L 504.095,215.561 L 501.216,214.651 L 498.337,213.819 L 495.459,212.985 L 492.579,212.189 L 489.663,211.393 L 486.784,210.636 L 483.829,209.916 L 480.912,209.235 L 477.957,208.553 L 475.04,207.908 L 472.048,207.303 L 469.093,206.696 L 466.139,206.128 L 463.147,205.599 L 460.153,205.067 L 457.161,204.612 L 454.168,204.121 L 451.139,203.704 L 448.145,203.287 L 445.115,202.908 L 442.084,202.567 L 439.055,202.227 L 436.024,201.924 L 432.993,201.659 L 429.925,201.431 L 426.895,201.204 L 423.827,201.015 L 420.796,200.863 L 417.727,200.711 L 414.697,200.597 L 411.629,200.521 L 408.56,200.447 L 405.529,200.408 L 402.461,200.408 L 399.393,200.408 L 396.325,200.484 L 393.256,200.56 L 390.227,200.635 L 387.159,200.787 L 384.089,200.937 L 381.059,201.089 L 377.991,201.317 L 374.96,201.544 L 371.892,201.809 L 368.861,202.075 L 365.831,202.379 L 362.8,202.719 L 359.771,203.097 L 356.74,203.476 L 353.709,203.893 L 350.716,204.348 L 347.687,204.84 L 344.693,205.333 L 341.701,205.825 L 338.709,206.393 L 335.716,206.961 L 332.761,207.567 L 329.768,208.212 L 326.813,208.856 L 323.859,209.537 L 320.943,210.257 L 317.988,210.977 L 315.071,211.735 L 312.155,212.531 L 309.275,213.364 L 306.396,214.196 L 303.48,215.068 L 300.639,215.977 L 297.76,216.887 L 294.919,217.835 L 292.116,218.819 L 289.275,219.803 L 286.471,220.825 L 283.668,221.887 L 280.903,222.948 L 278.139,224.084 L 275.409,225.22 L 272.645,226.357 L 269.955,227.532 L 267.228,228.781 L 264.539,229.993 L 261.887,231.281 L 259.235,232.571 L 256.584,233.896 L 253.971,235.221 L 251.356,236.585 L 248.78,237.987 L 246.204,239.427 L 243.667,240.865 L 241.167,242.343 L 238.628,243.859 L 236.165,245.375 L 233.704,246.927 L 231.241,248.517 L 228.816,250.108 L 226.431,251.776 L 224.044,253.405 L 221.657,255.109 L 219.348,256.815 L 217.036,258.557 L 214.725,260.337 L 212.452,262.117 L 210.219,263.936 L 207.983,265.792 L 205.787,267.648 L 203.627,269.58 L 201.468,271.475 L 199.345,273.444 L 197.263,275.415 L 195.216,277.423 L 193.171,279.468 L 191.125,281.513 L 189.156,283.597 L 187.187,285.719 L 185.255,287.84 L 183.36,289.999 L 181.504,292.196 L 179.648,294.431 L 177.829,296.665 L 176.049,298.94 L 174.269,301.212 L 172.564,303.56 L 170.86,305.909 L 169.193,308.257 L 167.564,310.683 L 165.973,313.107 L 164.383,315.532 L 162.867,318.032 L 161.352,320.532 L 159.912,323.071 L 158.473,325.608 L 157.071,328.223 L 155.708,330.836 L 154.344,333.449 L 153.056,336.139 L 151.805,338.829 L 150.556,341.519 L 149.381,344.284 L 148.245,347.049 L 147.109,349.852 L 146.048,352.656 L 144.987,355.497 L 144.003,358.376 L 143.019,361.292 L 142.109,364.209 L 141.2,367.164 L 140.367,370.157 L 139.571,373.151 L 138.775,376.18 L 138.055,379.248 L 137.373,382.317 L 136.729,385.423 L 136.123,388.568 L 135.555,391.749 L 135.025,394.932 L 134.532,398.152 L 134.116,401.372 L 133.737,404.668 L 133.357,407.963 L 133.055,411.26 L 132.789,414.631 L 132.6,418.003 L 132.6,696.889 L 132.297,700.109 L 132.108,703.255 L 131.957,706.323 L 131.919,707.837 L 131.919,709.315 L 131.919,710.755 L 131.957,712.232 L 131.995,713.633 L 132.071,715.036 L 132.145,716.437 L 132.297,717.763 L 132.412,719.127 L 132.6,720.415 L 132.789,721.74 L 133.017,722.991 L 133.244,724.24 L 133.509,725.453 L 133.812,726.665 L 134.153,727.84 L 134.495,729.015 L 134.912,730.151 L 135.328,731.248 L 135.744,732.309 L 136.237,733.371 L 136.767,734.431 L 137.297,735.416 L 137.867,736.4 L 138.472,737.385 L 139.116,738.295 L 139.799,739.204 L 140.519,740.075 L 141.237,740.947 L 142.032,741.78 L 142.828,742.575 L 143.7,743.332 L 144.609,744.091 L 145.519,744.811 L 146.503,745.493 L 147.487,746.175 L 148.548,746.819 L 149.647,747.424 L 150.783,747.993 L 151.957,748.561 L 153.169,749.053 L 154.419,749.545 L 155.708,750.039 L 157.071,750.455 L 158.435,750.872 L 159.875,751.251 L 161.352,751.591 L 162.867,751.895 L 164.457,752.159 L 166.087,752.425 L 167.753,752.652 L 169.457,752.841 L 171.2,752.993 L 173.019,753.107 L 174.875,753.22 L 176.807,753.259 L 178.777,753.296 Z "/>
	</g>
</svg>